<svg display="none" xmlns="http://www.w3.org/2000/svg" fill="none">

    <symbol id="info" viewBox="0 0 37 37">
        <path d="M18.5 2.3125C9.56074 2.3125 2.3125 9.56074 2.3125 18.5C2.3125 27.4393 9.56074 34.6875 18.5 34.6875C27.4393 34.6875 34.6875 27.4393 34.6875 18.5C34.6875 9.56074 27.4393 2.3125 18.5 2.3125ZM18.5 31.9414C11.0783 31.9414 5.05859 25.9217 5.05859 18.5C5.05859 11.0783 11.0783 5.05859 18.5 5.05859C25.9217 5.05859 31.9414 11.0783 31.9414 18.5C31.9414 25.9217 25.9217 31.9414 18.5 31.9414Z" fill="#195557"/>
        <path d="M16.7656 12.1406C16.7656 12.6006 16.9484 13.0418 17.2736 13.367C17.5989 13.6923 18.04 13.875 18.5 13.875C18.96 13.875 19.4011 13.6923 19.7264 13.367C20.0516 13.0418 20.2344 12.6006 20.2344 12.1406C20.2344 11.6806 20.0516 11.2395 19.7264 10.9142C19.4011 10.589 18.96 10.4063 18.5 10.4062C18.04 10.4063 17.5989 10.589 17.2736 10.9142C16.9484 11.2395 16.7656 11.6806 16.7656 12.1406ZM19.3672 16.1875H17.6328C17.4738 16.1875 17.3438 16.3176 17.3438 16.4766V26.3047C17.3438 26.4637 17.4738 26.5938 17.6328 26.5938H19.3672C19.5262 26.5938 19.6562 26.4637 19.6562 26.3047V16.4766C19.6562 16.3176 19.5262 16.1875 19.3672 16.1875Z" fill="#195557"/>
    </symbol>
    <symbol id="instargam" viewBox="0 0 40 40">
        <path d="M20 5C11.6667 5 5 11.6667 5 20C5 28.3333 11.6667 35 20 35C28.3333 35 35 28.3333 35 20C35 11.6667 28.3333 5 20 5ZM20 16.6667C21.8333 16.6667 23.3333 18.1667 23.3333 20C23.3333 21.8333 21.8333 23.3333 20 23.3333C18.1667 23.3333 16.6667 21.8333 16.6667 20C16.6667 18.1667 18.1667 16.6667 20 16.6667ZM24.6667 13.3333C24.6667 12.1667 25.6667 11.3333 26.6667 11.3333C27.6667 11.3333 28.6667 12.3333 28.6667 13.3333C28.6667 14.3333 27.8333 15.3333 26.6667 15.3333C25.5 15.3333 24.6667 14.5 24.6667 13.3333ZM20 31.6667C13.5 31.6667 8.33333 26.5 8.33333 20H13.3333C13.3333 23.6667 16.3333 26.6667 20 26.6667C23.6667 26.6667 26.6667 23.6667 26.6667 20H31.6667C31.6667 26.5 26.5 31.6667 20 31.6667Z"/>
    </symbol>
    <symbol id="logo" viewBox="0 0 122 57">
        <path d="M69.752 22.2363C69.752 22.6688 70.1027 23.0194 70.5351 23.0194H71.9714C72.4038 23.0194 72.7544 22.6688 72.7544 22.2363C72.7544 21.8039 72.4038 21.4533 71.9714 21.4533H70.5351C70.1027 21.4533 69.752 21.8039 69.752 22.2363Z"/>
        <path d="M80.0061 26.4806C79.845 26.4806 79.6873 26.4951 79.5335 26.5212L74.3726 17.9589C74.3933 17.9336 74.4131 17.9073 74.431 17.879L77.8968 12.3746C78.0405 12.1464 78.0565 11.8603 77.9395 11.6174C77.8224 11.3745 77.5885 11.2088 77.3206 11.1791L71.6347 10.5477L72.2803 4.86373C72.3107 4.59603 72.2014 4.33146 71.9906 4.16334C71.7802 3.99531 71.498 3.94723 71.2435 4.03631L65.844 5.92653L63.9585 0.525034C63.8696 0.270412 63.6561 0.0794463 63.3932 0.0195679C63.1305 -0.0401263 62.855 0.0392819 62.6647 0.230248L58.6251 4.28218L54.5855 0.230248C54.3951 0.0392819 54.1198 -0.0403106 53.857 0.0195679C53.5941 0.0794463 53.3806 0.270505 53.2917 0.524942L51.4063 5.92644L46.0066 4.03631C45.7522 3.94732 45.47 3.99522 45.2594 4.16334C45.0488 4.33137 44.9394 4.59594 44.9698 4.86373L45.6154 10.5477L39.9296 11.1792C39.6615 11.2089 39.4277 11.3745 39.3106 11.6175C39.1936 11.8604 39.2097 12.1464 39.3534 12.3747L42.4014 17.2156L37.5576 20.2576C37.3295 20.4008 37.191 20.6513 37.191 20.9206C37.191 21.19 37.3295 21.4404 37.5576 21.5837L42.4015 24.6257L39.3535 29.4667C39.2016 29.7079 39.1928 30.0125 39.3304 30.262C39.468 30.5115 39.7303 30.6666 40.0153 30.667L77.5944 30.7093C78.0832 31.5329 78.9811 32.0865 80.0062 32.0865C81.5518 32.0865 82.8092 30.8291 82.8092 29.2835C82.809 27.7379 81.5517 26.4806 80.0061 26.4806ZM77.2069 29.1428L63.2456 29.127C61.3969 22.8652 65.9751 17.9954 71.3158 15.9213L78.1207 27.2112C77.5898 27.6947 77.2448 28.379 77.2069 29.1428ZM44.1444 24.7968C44.2551 24.6209 44.2914 24.4082 44.2453 24.2056C44.199 24.003 44.0743 23.8271 43.8983 23.7164L39.4464 20.9206L43.8983 18.1247C44.0743 18.0141 44.1991 17.8382 44.2453 17.6355C44.2915 17.4329 44.2551 17.2202 44.1444 17.0443L41.3445 12.5975L46.5685 12.0174C46.7753 11.9944 46.9643 11.8901 47.0941 11.7276C47.2239 11.565 47.2836 11.3574 47.2601 11.1508L46.6668 5.92644L51.6285 7.66337C51.8245 7.732 52.0399 7.71975 52.2272 7.62975C52.4143 7.53947 52.558 7.37854 52.6265 7.1825L54.3586 2.22061L58.0706 5.94403C58.2175 6.09143 58.417 6.17424 58.6251 6.17424C58.8332 6.17424 59.0328 6.09143 59.1797 5.94403L62.8918 2.22061L64.6237 7.1825C64.6922 7.37872 64.8359 7.53966 65.0231 7.62984C65.2102 7.72003 65.4257 7.73219 65.6218 7.66347L70.5836 5.92653L69.9902 11.1509C69.9667 11.3575 70.0265 11.5651 70.1562 11.7276C70.2859 11.8903 70.4751 11.9945 70.6818 12.0175L75.9058 12.5975L73.4715 16.4636L72.3237 14.5593C72.1326 14.2424 71.746 14.1027 71.3968 14.2235C67.806 15.4669 64.8564 17.6385 63.0919 20.3383C61.3345 23.0272 60.8338 26.0454 61.6208 29.125L41.4337 29.1023L44.1444 24.7968ZM80.0061 30.5204C79.3242 30.5204 78.7693 29.9655 78.7693 29.2835C78.7693 28.6014 79.3242 28.0465 80.0061 28.0465C80.6881 28.0465 81.2431 28.6014 81.2431 29.2835C81.2431 29.9655 80.6881 30.5204 80.0061 30.5204Z"/>
        <path d="M16.104 55.545C16.148 55.545 16.17 55.589 16.17 55.677C16.17 55.765 16.148 55.809 16.104 55.809C15.5907 55.809 15.18 55.8017 14.872 55.787L13.178 55.765L11.198 55.787C10.934 55.8017 10.5747 55.809 10.12 55.809C10.076 55.809 10.054 55.765 10.054 55.677C10.054 55.589 10.076 55.545 10.12 55.545C10.6627 55.545 11.0587 55.5084 11.308 55.435C11.5574 55.3617 11.726 55.2224 11.814 55.017C11.902 54.8117 11.946 54.4817 11.946 54.027V48.967H4.84003V54.027C4.84003 54.467 4.88403 54.797 4.97203 55.017C5.06003 55.2224 5.22869 55.3617 5.47803 55.435C5.72736 55.5084 6.12336 55.545 6.66603 55.545C6.69536 55.545 6.71003 55.589 6.71003 55.677C6.71003 55.765 6.69536 55.809 6.66603 55.809C6.15269 55.809 5.74203 55.8017 5.43403 55.787L3.52003 55.765L1.87003 55.787C1.57669 55.8017 1.17336 55.809 0.660028 55.809C0.630695 55.809 0.616028 55.765 0.616028 55.677C0.616028 55.589 0.630695 55.545 0.660028 55.545C1.17336 55.545 1.54736 55.5084 1.78203 55.435C2.01669 55.3617 2.17803 55.2224 2.26603 55.017C2.35403 54.797 2.39803 54.467 2.39803 54.027V43.841C2.39803 43.401 2.35403 43.0784 2.26603 42.873C2.17803 42.6677 2.01669 42.5284 1.78203 42.455C1.56203 42.367 1.20269 42.323 0.704028 42.323C0.660028 42.323 0.638028 42.279 0.638028 42.191C0.638028 42.103 0.660028 42.059 0.704028 42.059L1.89203 42.081C2.56669 42.1104 3.10936 42.125 3.52003 42.125C4.07736 42.125 4.72269 42.1104 5.45603 42.081L6.66603 42.059C6.69536 42.059 6.71003 42.103 6.71003 42.191C6.71003 42.279 6.69536 42.323 6.66603 42.323C6.13803 42.323 5.74936 42.367 5.50003 42.455C5.25069 42.543 5.0747 42.697 4.97203 42.917C4.88403 43.1224 4.84003 43.445 4.84003 43.885V48.351H11.946V43.885C11.946 43.445 11.902 43.1224 11.814 42.917C11.726 42.697 11.5574 42.543 11.308 42.455C11.0587 42.367 10.6627 42.323 10.12 42.323C10.076 42.323 10.054 42.279 10.054 42.191C10.054 42.103 10.076 42.059 10.12 42.059L11.198 42.081C11.9314 42.1104 12.5914 42.125 13.178 42.125C13.574 42.125 14.1387 42.1104 14.872 42.081L16.104 42.059C16.148 42.059 16.17 42.103 16.17 42.191C16.17 42.279 16.148 42.323 16.104 42.323C15.6054 42.323 15.2314 42.367 14.982 42.455C14.7474 42.5284 14.586 42.6677 14.498 42.873C14.4247 43.0784 14.388 43.401 14.388 43.841V54.027C14.388 54.467 14.4247 54.797 14.498 55.017C14.586 55.2224 14.7474 55.3617 14.982 55.435C15.2167 55.5084 15.5907 55.545 16.104 55.545Z"/>
        <path d="M27.7128 52.311C27.7128 52.2817 27.7421 52.267 27.8008 52.267C27.8448 52.267 27.8815 52.2817 27.9108 52.311C27.9548 52.3257 27.9768 52.3404 27.9768 52.355C27.8301 53.499 27.7568 54.5404 27.7568 55.479C27.7568 55.5964 27.7348 55.6844 27.6908 55.743C27.6468 55.787 27.5588 55.809 27.4268 55.809H17.7028C17.6588 55.809 17.6368 55.765 17.6368 55.677C17.6368 55.589 17.6588 55.545 17.7028 55.545C18.1721 55.545 18.5095 55.5084 18.7148 55.435C18.9348 55.3617 19.0815 55.2224 19.1548 55.017C19.2281 54.797 19.2648 54.467 19.2648 54.027V43.841C19.2648 43.401 19.2281 43.0784 19.1548 42.873C19.0815 42.6677 18.9348 42.5284 18.7148 42.455C18.4948 42.367 18.1575 42.323 17.7028 42.323C17.6588 42.323 17.6368 42.279 17.6368 42.191C17.6368 42.103 17.6588 42.059 17.7028 42.059H27.0308C27.1775 42.059 27.2508 42.125 27.2508 42.257L27.2948 45.183C27.2948 45.2124 27.2508 45.2344 27.1628 45.249C27.0895 45.2637 27.0455 45.249 27.0308 45.205C26.7961 44.3544 26.4001 43.7237 25.8428 43.313C25.2855 42.9024 24.5521 42.697 23.6428 42.697H22.9828C22.5428 42.697 22.2201 42.7924 22.0148 42.983C21.8095 43.1737 21.7068 43.467 21.7068 43.863V48.351H23.5328C24.3835 48.351 25.0361 48.2044 25.4908 47.911C25.9455 47.6177 26.1728 47.207 26.1728 46.679C26.1728 46.635 26.2095 46.613 26.2828 46.613C26.3708 46.613 26.4148 46.635 26.4148 46.679L26.3928 48.659L26.4148 49.715C26.4441 50.2137 26.4588 50.6097 26.4588 50.903C26.4588 50.9324 26.4148 50.947 26.3268 50.947C26.2388 50.947 26.1948 50.9324 26.1948 50.903C26.1948 50.3017 25.9601 49.8324 25.4908 49.495C25.0361 49.143 24.3761 48.967 23.5108 48.967H21.7068V53.939C21.7068 54.3644 21.7875 54.6797 21.9488 54.885C22.1101 55.0904 22.3668 55.193 22.7188 55.193H23.4448C24.5888 55.193 25.5055 54.9584 26.1948 54.489C26.8841 54.0197 27.3901 53.2937 27.7128 52.311Z"/>
        <path d="M36.1115 55.897C35.6421 55.897 35.0848 55.875 34.4395 55.831C34.2048 55.8164 33.9115 55.8017 33.5595 55.787C33.2221 55.7724 32.8408 55.765 32.4155 55.765L30.7875 55.787C30.4941 55.8017 30.0981 55.809 29.5995 55.809C29.5701 55.809 29.5555 55.765 29.5555 55.677C29.5555 55.589 29.5701 55.545 29.5995 55.545C30.0688 55.545 30.4135 55.5084 30.6335 55.435C30.8535 55.3617 31.0001 55.2224 31.0735 55.017C31.1615 54.797 31.2055 54.467 31.2055 54.027V43.841C31.2055 43.401 31.1615 43.0784 31.0735 42.873C31.0001 42.6677 30.8535 42.5284 30.6335 42.455C30.4281 42.367 30.0981 42.323 29.6435 42.323C29.5995 42.323 29.5775 42.279 29.5775 42.191C29.5775 42.103 29.5995 42.059 29.6435 42.059L30.8095 42.081C31.4841 42.1104 32.0195 42.125 32.4155 42.125C33.0168 42.125 33.6328 42.103 34.2635 42.059C35.0261 42.0297 35.5395 42.015 35.8035 42.015C37.2848 42.015 38.5975 42.3084 39.7415 42.895C40.9002 43.4817 41.7948 44.281 42.4255 45.293C43.0561 46.305 43.3715 47.4417 43.3715 48.703C43.3715 50.1257 43.0415 51.387 42.3815 52.487C41.7361 53.5724 40.8561 54.4157 39.7415 55.017C38.6415 55.6037 37.4315 55.897 36.1115 55.897ZM35.8915 55.391C36.8301 55.391 37.6588 55.1564 38.3775 54.687C39.0961 54.203 39.6535 53.4917 40.0495 52.553C40.4601 51.6144 40.6655 50.4924 40.6655 49.187C40.6655 47.9404 40.4748 46.811 40.0935 45.799C39.7122 44.7724 39.1695 43.9657 38.4655 43.379C37.7615 42.7924 36.9475 42.499 36.0235 42.499C35.1142 42.499 34.4908 42.587 34.1535 42.763C33.8161 42.939 33.6475 43.313 33.6475 43.885V53.785C33.6475 54.3717 33.8015 54.7897 34.1095 55.039C34.4175 55.2737 35.0115 55.391 35.8915 55.391Z"/>
        <path d="M53.4492 56.073C51.8359 56.073 50.4279 55.765 49.2252 55.149C48.0225 54.533 47.1059 53.697 46.4752 52.641C45.8445 51.5704 45.5292 50.3824 45.5292 49.077C45.5292 47.669 45.8885 46.415 46.6072 45.315C47.3405 44.2004 48.3379 43.3424 49.5992 42.741C50.8752 42.125 52.2979 41.817 53.8672 41.817C54.5565 41.817 55.2532 41.8757 55.9572 41.993C56.6612 42.0957 57.2259 42.235 57.6512 42.411C57.7832 42.455 57.8639 42.5137 57.8932 42.587C57.9372 42.6457 57.9665 42.7557 57.9812 42.917L58.2672 45.975C58.2672 46.019 58.2305 46.0484 58.1572 46.063C58.0839 46.0777 58.0325 46.0557 58.0032 45.997C57.4899 44.8677 56.7785 43.9877 55.8692 43.357C54.9745 42.7264 53.9479 42.411 52.7892 42.411C51.2932 42.411 50.1492 42.9317 49.3572 43.973C48.5799 45.0144 48.1912 46.437 48.1912 48.241C48.1912 49.693 48.4405 50.991 48.9392 52.135C49.4379 53.2644 50.1272 54.1444 51.0072 54.775C51.9019 55.391 52.8992 55.699 53.9992 55.699C54.6005 55.699 55.0625 55.633 55.3852 55.501C55.7079 55.369 55.9425 55.1124 56.0892 54.731C56.2359 54.3497 56.3092 53.785 56.3092 53.037C56.3092 52.2744 56.2652 51.7464 56.1772 51.453C56.0892 51.145 55.8985 50.9397 55.6052 50.837C55.3265 50.7344 54.8352 50.683 54.1312 50.683C54.0432 50.683 53.9992 50.6244 53.9992 50.507C53.9992 50.463 54.0065 50.4264 54.0212 50.397C54.0505 50.353 54.0799 50.331 54.1092 50.331C55.3559 50.4044 56.3605 50.441 57.1232 50.441C57.8712 50.441 58.6485 50.419 59.4552 50.375C59.4845 50.375 59.5065 50.397 59.5212 50.441C59.5505 50.4704 59.5652 50.4997 59.5652 50.529C59.5652 50.6317 59.5285 50.683 59.4552 50.683C59.1912 50.6684 59.0079 50.7197 58.9052 50.837C58.8025 50.9397 58.7365 51.1597 58.7072 51.497C58.6779 51.8197 58.6632 52.4064 58.6632 53.257C58.6632 53.917 58.6852 54.3864 58.7292 54.665C58.7879 54.9437 58.8172 55.1197 58.8172 55.193C58.8172 55.281 58.7952 55.3397 58.7512 55.369C58.7219 55.3984 58.6559 55.4277 58.5532 55.457C56.6612 55.8677 54.9599 56.073 53.4492 56.073Z"/>
        <path d="M71.1757 52.311C71.1757 52.2817 71.205 52.267 71.2637 52.267C71.3077 52.267 71.3444 52.2817 71.3737 52.311C71.4177 52.3257 71.4397 52.3404 71.4397 52.355C71.293 53.499 71.2197 54.5404 71.2197 55.479C71.2197 55.5964 71.1977 55.6844 71.1537 55.743C71.1097 55.787 71.0217 55.809 70.8897 55.809H61.1657C61.1217 55.809 61.0997 55.765 61.0997 55.677C61.0997 55.589 61.1217 55.545 61.1657 55.545C61.635 55.545 61.9724 55.5084 62.1777 55.435C62.3977 55.3617 62.5444 55.2224 62.6177 55.017C62.691 54.797 62.7277 54.467 62.7277 54.027V43.841C62.7277 43.401 62.691 43.0784 62.6177 42.873C62.5444 42.6677 62.3977 42.5284 62.1777 42.455C61.9577 42.367 61.6204 42.323 61.1657 42.323C61.1217 42.323 61.0997 42.279 61.0997 42.191C61.0997 42.103 61.1217 42.059 61.1657 42.059H70.4937C70.6404 42.059 70.7137 42.125 70.7137 42.257L70.7577 45.183C70.7577 45.2124 70.7137 45.2344 70.6257 45.249C70.5524 45.2637 70.5084 45.249 70.4937 45.205C70.259 44.3544 69.863 43.7237 69.3057 43.313C68.7484 42.9024 68.015 42.697 67.1057 42.697H66.4457C66.0057 42.697 65.683 42.7924 65.4777 42.983C65.2724 43.1737 65.1697 43.467 65.1697 43.863V48.351H66.9957C67.8464 48.351 68.499 48.2044 68.9537 47.911C69.4084 47.6177 69.6357 47.207 69.6357 46.679C69.6357 46.635 69.6724 46.613 69.7457 46.613C69.8337 46.613 69.8777 46.635 69.8777 46.679L69.8557 48.659L69.8777 49.715C69.907 50.2137 69.9217 50.6097 69.9217 50.903C69.9217 50.9324 69.8777 50.947 69.7897 50.947C69.7017 50.947 69.6577 50.9324 69.6577 50.903C69.6577 50.3017 69.423 49.8324 68.9537 49.495C68.499 49.143 67.839 48.967 66.9737 48.967H65.1697V53.939C65.1697 54.3644 65.2504 54.6797 65.4117 54.885C65.573 55.0904 65.8297 55.193 66.1817 55.193H66.9077C68.0517 55.193 68.9684 54.9584 69.6577 54.489C70.347 54.0197 70.853 53.2937 71.1757 52.311Z"/>
        <path d="M88.5064 55.545C88.5504 55.545 88.5724 55.589 88.5724 55.677C88.5724 55.765 88.5504 55.809 88.5064 55.809C87.993 55.809 87.5824 55.8017 87.2744 55.787L85.5804 55.765L83.6004 55.787C83.3364 55.8017 82.977 55.809 82.5224 55.809C82.4784 55.809 82.4564 55.765 82.4564 55.677C82.4564 55.589 82.4784 55.545 82.5224 55.545C83.065 55.545 83.461 55.5084 83.7104 55.435C83.9597 55.3617 84.1284 55.2224 84.2164 55.017C84.3044 54.8117 84.3484 54.4817 84.3484 54.027V48.967H77.2424V54.027C77.2424 54.467 77.2864 54.797 77.3744 55.017C77.4624 55.2224 77.631 55.3617 77.8804 55.435C78.1297 55.5084 78.5257 55.545 79.0684 55.545C79.0977 55.545 79.1124 55.589 79.1124 55.677C79.1124 55.765 79.0977 55.809 79.0684 55.809C78.555 55.809 78.1444 55.8017 77.8364 55.787L75.9224 55.765L74.2724 55.787C73.979 55.8017 73.5757 55.809 73.0624 55.809C73.033 55.809 73.0184 55.765 73.0184 55.677C73.0184 55.589 73.033 55.545 73.0624 55.545C73.5757 55.545 73.9497 55.5084 74.1844 55.435C74.419 55.3617 74.5804 55.2224 74.6684 55.017C74.7564 54.797 74.8004 54.467 74.8004 54.027V43.841C74.8004 43.401 74.7564 43.0784 74.6684 42.873C74.5804 42.6677 74.419 42.5284 74.1844 42.455C73.9644 42.367 73.605 42.323 73.1064 42.323C73.0624 42.323 73.0404 42.279 73.0404 42.191C73.0404 42.103 73.0624 42.059 73.1064 42.059L74.2944 42.081C74.969 42.1104 75.5117 42.125 75.9224 42.125C76.4797 42.125 77.125 42.1104 77.8584 42.081L79.0684 42.059C79.0977 42.059 79.1124 42.103 79.1124 42.191C79.1124 42.279 79.0977 42.323 79.0684 42.323C78.5404 42.323 78.1517 42.367 77.9024 42.455C77.653 42.543 77.477 42.697 77.3744 42.917C77.2864 43.1224 77.2424 43.445 77.2424 43.885V48.351H84.3484V43.885C84.3484 43.445 84.3044 43.1224 84.2164 42.917C84.1284 42.697 83.9597 42.543 83.7104 42.455C83.461 42.367 83.065 42.323 82.5224 42.323C82.4784 42.323 82.4564 42.279 82.4564 42.191C82.4564 42.103 82.4784 42.059 82.5224 42.059L83.6004 42.081C84.3337 42.1104 84.9937 42.125 85.5804 42.125C85.9764 42.125 86.541 42.1104 87.2744 42.081L88.5064 42.059C88.5504 42.059 88.5724 42.103 88.5724 42.191C88.5724 42.279 88.5504 42.323 88.5064 42.323C88.0077 42.323 87.6337 42.367 87.3844 42.455C87.1497 42.5284 86.9884 42.6677 86.9004 42.873C86.827 43.0784 86.7904 43.401 86.7904 43.841V54.027C86.7904 54.467 86.827 54.797 86.9004 55.017C86.9884 55.2224 87.1497 55.3617 87.3844 55.435C87.619 55.5084 87.993 55.545 88.5064 55.545Z"/>
        <path d="M97.2551 56.073C95.8912 56.073 94.6738 55.7577 93.6031 55.127C92.5471 54.4817 91.7258 53.6164 91.1392 52.531C90.5672 51.431 90.2812 50.2357 90.2812 48.945C90.2812 47.4344 90.6625 46.1437 91.4252 45.073C92.1878 43.9877 93.1631 43.1737 94.3512 42.631C95.5538 42.0884 96.7785 41.817 98.0252 41.817C99.4185 41.817 100.643 42.147 101.699 42.807C102.755 43.4524 103.562 44.3104 104.119 45.381C104.691 46.4517 104.977 47.5884 104.977 48.791C104.977 50.1257 104.625 51.3504 103.921 52.465C103.217 53.5797 102.271 54.4597 101.083 55.105C99.9098 55.7504 98.6338 56.073 97.2551 56.073ZM97.9812 55.523C98.8025 55.523 99.5358 55.2884 100.181 54.819C100.841 54.335 101.354 53.6384 101.721 52.729C102.088 51.805 102.271 50.705 102.271 49.429C102.271 48.0797 102.066 46.877 101.655 45.821C101.244 44.7504 100.65 43.9144 99.8732 43.313C99.0958 42.7117 98.1865 42.411 97.1452 42.411C95.8105 42.411 94.7838 42.917 94.0652 43.929C93.3465 44.9264 92.9872 46.327 92.9872 48.131C92.9872 49.5537 93.1998 50.8297 93.6252 51.959C94.0652 53.0737 94.6591 53.9464 95.4072 54.577C96.1698 55.2077 97.0278 55.523 97.9812 55.523Z"/>
        <path d="M115.045 56.073C113.432 56.073 112.024 55.765 110.821 55.149C109.618 54.533 108.702 53.697 108.071 52.641C107.44 51.5704 107.125 50.3824 107.125 49.077C107.125 47.669 107.484 46.415 108.203 45.315C108.936 44.2004 109.934 43.3424 111.195 42.741C112.471 42.125 113.894 41.817 115.463 41.817C116.152 41.817 116.849 41.8757 117.553 41.993C118.257 42.0957 118.822 42.235 119.247 42.411C119.379 42.455 119.46 42.5137 119.489 42.587C119.533 42.6457 119.562 42.7557 119.577 42.917L119.863 45.975C119.863 46.019 119.826 46.0484 119.753 46.063C119.68 46.0777 119.628 46.0557 119.599 45.997C119.086 44.8677 118.374 43.9877 117.465 43.357C116.57 42.7264 115.544 42.411 114.385 42.411C112.889 42.411 111.745 42.9317 110.953 43.973C110.176 45.0144 109.787 46.437 109.787 48.241C109.787 49.693 110.036 50.991 110.535 52.135C111.034 53.2644 111.723 54.1444 112.603 54.775C113.498 55.391 114.495 55.699 115.595 55.699C116.196 55.699 116.658 55.633 116.981 55.501C117.304 55.369 117.538 55.1124 117.685 54.731C117.832 54.3497 117.905 53.785 117.905 53.037C117.905 52.2744 117.861 51.7464 117.773 51.453C117.685 51.145 117.494 50.9397 117.201 50.837C116.922 50.7344 116.431 50.683 115.727 50.683C115.639 50.683 115.595 50.6244 115.595 50.507C115.595 50.463 115.602 50.4264 115.617 50.397C115.646 50.353 115.676 50.331 115.705 50.331C116.952 50.4044 117.956 50.441 118.719 50.441C119.467 50.441 120.244 50.419 121.051 50.375C121.08 50.375 121.102 50.397 121.117 50.441C121.146 50.4704 121.161 50.4997 121.161 50.529C121.161 50.6317 121.124 50.683 121.051 50.683C120.787 50.6684 120.604 50.7197 120.501 50.837C120.398 50.9397 120.332 51.1597 120.303 51.497C120.274 51.8197 120.259 52.4064 120.259 53.257C120.259 53.917 120.281 54.3864 120.325 54.665C120.384 54.9437 120.413 55.1197 120.413 55.193C120.413 55.281 120.391 55.3397 120.347 55.369C120.318 55.3984 120.252 55.4277 120.149 55.457C118.257 55.8677 116.556 56.073 115.045 56.073Z"/>
        <path d="M86.7191 17.9983H118V19.3016H86.7191V17.9983Z"/>
        <path d="M2.00003 17.9983H31.9776V19.3016H2.00003V17.9983Z"/>
    </symbol>
    <symbol id="plus" viewBox="0 0 40 40">
        <path d="M31.6667 18.3334H21.6667V8.33335C21.6667 7.89133 21.4911 7.4674 21.1785 7.15484C20.8659 6.84228 20.442 6.66669 20 6.66669C19.558 6.66669 19.134 6.84228 18.8215 7.15484C18.5089 7.4674 18.3333 7.89133 18.3333 8.33335V18.3334H8.33332C7.8913 18.3334 7.46737 18.5089 7.15481 18.8215C6.84225 19.1341 6.66666 19.558 6.66666 20C6.66666 20.442 6.84225 20.866 7.15481 21.1785C7.46737 21.4911 7.8913 21.6667 8.33332 21.6667H18.3333V31.6667C18.3333 32.1087 18.5089 32.5326 18.8215 32.8452C19.134 33.1578 19.558 33.3334 20 33.3334C20.442 33.3334 20.8659 33.1578 21.1785 32.8452C21.4911 32.5326 21.6667 32.1087 21.6667 31.6667V21.6667H31.6667C32.1087 21.6667 32.5326 21.4911 32.8452 21.1785C33.1577 20.866 33.3333 20.442 33.3333 20C33.3333 19.558 33.1577 19.1341 32.8452 18.8215C32.5326 18.5089 32.1087 18.3334 31.6667 18.3334Z" fill="#195557"/>
    </symbol>
    <symbol id="syringe" viewBox="0 0 46 46">
        <path d="M33.3773 5.43518L31.3087 7.50374L31.8478 8.04281L28.5689 11.3217L30.59 13.3889L33.8718 10.0625L35.9375 12.1296L32.6126 15.4071L34.6797 17.4297L37.9586 14.1507L38.4977 14.6898L40.5662 12.6212L33.3773 5.43518ZM25.4711 10.4664L23.4025 12.535L24.3469 13.478L10.0625 27.807L9.568 28.3001L9.65856 28.9757L10.1516 33.557L10.1976 34.0501L10.3313 34.1406L5.66087 38.8125H9.74912L12.6701 35.8929L17.0257 36.3414L17.7014 36.432L18.1944 35.9375L32.5249 21.6516L33.4679 22.5961L35.535 20.5289L25.4711 10.4664ZM26.4141 15.5437L30.4577 19.5859L16.6664 33.4219L13.2523 33.0179L12.9821 32.7477L12.5781 29.3336L26.4141 15.5437Z"/>
    </symbol>
    <symbol id="twitter" viewBox="0 0 40 40">
        <path d="M25.465 17.1383C26.0617 16.77 26.46 16.27 26.6533 15.6317C26.1067 15.9276 25.52 16.1426 24.9117 16.27C24.6629 15.9964 24.3583 15.7793 24.0184 15.6335C23.6786 15.4877 23.3114 15.4166 22.9417 15.425C22.1683 15.425 21.5167 15.6967 20.9833 16.2233C20.7264 16.474 20.5232 16.7745 20.3862 17.1063C20.2493 17.4381 20.1814 17.7944 20.1867 18.1533C20.1867 18.3817 20.215 18.5867 20.2733 18.76C17.9933 18.68 16.1083 17.7367 14.6217 15.9167C14.3778 16.3311 14.2473 16.8025 14.2433 17.2833C14.2433 18.2467 14.65 19.01 15.46 19.5717C15.0344 19.5429 14.6197 19.4242 14.2433 19.2233C14.2433 19.9117 14.445 20.4867 14.8517 20.9933C15.2567 21.4933 15.78 21.8133 16.4167 21.9483C16.1797 22.0083 15.9361 22.038 15.6917 22.0367C15.5248 22.0462 15.3577 22.0253 15.1983 21.975C15.3717 22.5367 15.6917 22.99 16.155 23.3383C16.6167 23.6883 17.15 23.8717 17.75 23.8883C16.787 24.654 15.5885 25.0627 14.3583 25.045C14.045 25.045 13.825 25.0417 13.6917 25.0167C14.9411 25.8293 16.4029 26.2544 17.8933 26.2383C19.4783 26.2383 20.88 25.8367 22.0967 25.0333C23.3133 24.235 24.215 23.25 24.7917 22.0883C25.3627 20.9659 25.6602 19.7243 25.66 18.465V18.1167C26.22 17.695 26.675 17.22 27.0233 16.6933C26.5275 16.9144 26.0028 17.0643 25.465 17.1383ZM20 35C15.85 35 12.275 33.5167 9.37333 30.59C6.47167 27.6717 5 24.1083 5 20C5 15.8533 6.47333 12.2767 9.37833 9.375C12.2783 6.47333 15.8517 5 20 5C24.11 5 27.6733 6.47167 30.59 9.37333C33.5167 12.2767 35 15.8533 35 20C35 24.1083 33.5183 27.6733 30.5933 30.595C27.675 33.5167 24.1117 35 20 35ZM20 8.33333C16.7233 8.33333 14.02 9.445 11.7367 11.7333C9.445 14.02 8.33333 16.7233 8.33333 20C8.33333 23.24 9.44667 25.9367 11.7383 28.2417C14.025 30.5467 16.7267 31.6667 20 31.6667C23.2383 31.6667 25.9333 30.545 28.2367 28.2383C30.545 25.9317 31.6667 23.235 31.6667 20C31.6667 16.7283 30.5467 14.025 28.2417 11.7383C25.9367 9.44667 23.2417 8.33333 20 8.33333Z"/>
    </symbol>
    <symbol id="basket" viewBox="0 0 45 38">
        <path d="M12.6435 37.7719C14.1216 37.7719 15.3198 36.6461 15.3198 35.2574C15.3198 33.8686 14.1216 32.7429 12.6435 32.7429C11.1654 32.7429 9.96716 33.8686 9.96716 35.2574C9.96716 36.6461 11.1654 37.7719 12.6435 37.7719Z" fill="#195557"/>
        <path d="M28.9039 37.7719C30.382 37.7719 31.5802 36.6461 31.5802 35.2574C31.5802 33.8686 30.382 32.7429 28.9039 32.7429C27.4258 32.7429 26.2275 33.8686 26.2275 35.2574C26.2275 36.6461 27.4258 37.7719 28.9039 37.7719Z" fill="#195557"/>
        <path d="M36.1359 8.01107C36.0253 7.88287 35.8857 7.7793 35.7274 7.7078C35.569 7.63631 35.3957 7.59866 35.22 7.59757H10.4548L11.228 9.8327H33.6618L30.4859 23.2435H12.6435L7.2075 7.07231C7.1487 6.90072 7.04659 6.74504 6.90989 6.61854C6.77319 6.49205 6.60594 6.39851 6.42243 6.34589L1.54551 4.93776C1.39555 4.89446 1.23799 4.87934 1.08181 4.89326C0.925634 4.90718 0.773903 4.94986 0.635282 5.01887C0.355326 5.15824 0.145765 5.3964 0.0527001 5.68094C-0.0403644 5.96548 -0.00930887 6.2731 0.139035 6.53613C0.287378 6.79916 0.540859 6.99605 0.843713 7.08349L5.11399 8.31281L10.5738 24.5175L8.62299 26.0151L8.46836 26.1604C7.98582 26.6828 7.71232 27.347 7.69495 28.0385C7.67758 28.7301 7.91743 29.4057 8.3732 29.9489C8.6974 30.3193 9.10938 30.6133 9.57618 30.8074C10.043 31.0015 10.5516 31.0902 11.0615 31.0665H30.9141C31.2295 31.0665 31.5321 30.9487 31.7552 30.7392C31.9782 30.5296 32.1036 30.2453 32.1036 29.9489C32.1036 29.6525 31.9782 29.3683 31.7552 29.1587C31.5321 28.9491 31.2295 28.8314 30.9141 28.8314H10.8711C10.7342 28.827 10.6007 28.7894 10.4837 28.7224C10.3666 28.6554 10.27 28.5612 10.203 28.4489C10.136 28.3365 10.101 28.2098 10.1014 28.0811C10.1017 27.9523 10.1374 27.8258 10.205 27.7138L13.0717 25.4786H31.4374C31.7124 25.485 31.9812 25.4016 32.1981 25.2426C32.415 25.0837 32.5665 24.859 32.6269 24.6069L36.3976 8.961C36.4338 8.79439 36.429 8.62222 36.3837 8.45761C36.3383 8.29299 36.2536 8.14027 36.1359 8.01107Z" fill="#195557"/>
        <circle cx="35.5" cy="9.5" r="9.5" fill="#FFEDCD"/>
        <path d="M37.68 11.79V13H33.66V11.79H35.04V7.17C34.9867 7.25 34.8967 7.34 34.77 7.44C34.65 7.53333 34.51 7.62667 34.35 7.72C34.1967 7.80667 34.0367 7.88 33.87 7.94C33.71 8 33.5633 8.03 33.43 8.03V6.79C33.61 6.79 33.7933 6.74333 33.98 6.65C34.1667 6.55 34.3367 6.44333 34.49 6.33C34.65 6.21 34.78 6.1 34.88 6C34.98 5.9 35.0333 5.84333 35.04 5.83H36.41V11.79H37.68Z" fill="black"/>
    </symbol>
    <symbol id="facebook" viewBox="0 0 40 40">
        <path d="M30.59 9.37333C27.6733 6.47167 24.11 5 20 5C15.8517 5 12.2783 6.47333 9.37833 9.375C6.47333 12.2767 5 15.8533 5 20C5 24.1083 6.47167 27.6717 9.37333 30.59C12.275 33.5167 15.85 35 20 35C24.1117 35 27.675 33.5167 30.5933 30.595C33.5183 27.6733 35 24.1083 35 20C35 15.8533 33.5167 12.2767 30.59 9.37333ZM28.2367 28.2383C26.3417 30.1367 24.1767 31.2183 21.6667 31.5467V23.3333H25V20H21.6667V17.6667C21.6667 17.5352 21.6926 17.405 21.7429 17.2836C21.7933 17.1622 21.8671 17.0518 21.9601 16.959C22.0532 16.8661 22.1636 16.7925 22.2851 16.7423C22.4067 16.6922 22.5369 16.6664 22.6683 16.6667H25V13.3333H22.6717C21.435 13.3333 20.4033 13.7883 19.5767 14.7033C18.75 15.615 18.3333 16.7283 18.3333 18.05V20H15V23.3333H18.3333V31.55C15.7967 31.225 13.6233 30.1417 11.7383 28.2433C9.44667 25.9367 8.33333 23.24 8.33333 20C8.33333 16.7233 9.445 14.02 11.7367 11.7333C14.02 9.445 16.7233 8.33333 20 8.33333C23.2417 8.33333 25.9367 9.44667 28.2417 11.7383C30.5467 14.025 31.6667 16.7283 31.6667 20C31.6667 23.235 30.545 25.9317 28.2367 28.2383Z"/>
    </symbol>
    <symbol id="heart" viewBox="0 0 43 43">
        <path d="M38.7588 11.909C38.1959 10.6057 37.3843 9.42465 36.3694 8.432C35.3538 7.43639 34.1563 6.64519 32.8421 6.10143C31.4793 5.53535 30.0177 5.2456 28.5421 5.24899C26.4719 5.24899 24.4521 5.81589 22.6968 6.88669C22.2769 7.14284 21.8779 7.42419 21.5 7.73073C21.1221 7.42419 20.7231 7.14284 20.3032 6.88669C18.5479 5.81589 16.5281 5.24899 14.4579 5.24899C12.9672 5.24899 11.5227 5.53454 10.1579 6.10143C8.83935 6.64733 7.65098 7.43259 6.63057 8.432C5.61434 9.42353 4.80255 10.6048 4.24121 11.909C3.65752 13.2653 3.35938 14.7056 3.35938 16.188C3.35938 17.5863 3.64492 19.0434 4.21182 20.5257C4.68633 21.7645 5.3666 23.0495 6.23584 24.347C7.61318 26.4005 9.50703 28.5421 11.8586 30.7131C15.7555 34.3118 19.6146 36.7977 19.7783 36.8985L20.7735 37.5368C21.2145 37.8181 21.7813 37.8181 22.2223 37.5368L23.2175 36.8985C23.3813 36.7935 27.2361 34.3118 31.1372 30.7131C33.4888 28.5421 35.3826 26.4005 36.76 24.347C37.6292 23.0495 38.3137 21.7645 38.784 20.5257C39.3509 19.0434 39.6364 17.5863 39.6364 16.188C39.6406 14.7056 39.3425 13.2653 38.7588 11.909ZM21.5 34.2152C21.5 34.2152 6.55078 24.6368 6.55078 16.188C6.55078 11.909 10.0907 8.4404 14.4579 8.4404C17.5275 8.4404 20.1898 10.1537 21.5 12.6564C22.8102 10.1537 25.4725 8.4404 28.5421 8.4404C32.9093 8.4404 36.4492 11.909 36.4492 16.188C36.4492 24.6368 21.5 34.2152 21.5 34.2152Z"/>
        <path d="M28.5421 8.44043C25.4725 8.44043 22.8102 10.1537 21.5 12.6564C20.1898 10.1537 17.5275 8.44043 14.4579 8.44043C10.0907 8.44043 6.55078 11.909 6.55078 16.188C6.55078 24.6368 21.5 34.2152 21.5 34.2152C21.5 34.2152 36.4492 24.6368 36.4492 16.188C36.4492 11.909 32.9093 8.44043 28.5421 8.44043Z" fill="black" fill-opacity="0.1"/>
    </symbol>
    <symbol id="hedgehog" viewBox="0 0 63 36">
        <path d="M6.588 0.585991C6.588 0.585991 2.42 5.75199 2.92 8.91899L0.086998 11.419V12.919C0.086998 12.919 6.92 15.752 13.42 13.752V16.252L13.587 18.752L16.92 20.085C16.92 20.085 20.753 19.419 21.753 14.085C21.753 14.085 25.753 15.585 27.42 19.919L32.087 19.585C32.087 19.585 32.753 17.085 31.92 15.419L52.42 15.085L54.42 16.919V18.919L55.42 20.085H57.587L59.253 18.252L57.42 11.752L58.92 7.08499C58.92 7.08499 41.587 17.585 17.587 3.91899L15.754 0.0849915C15.754 0.0849915 11.92 0.751991 12.087 1.75199C12.087 1.75199 11.253 -0.914009 6.587 0.585991H6.588Z" fill="#9B9B9A" transform="translate(2,14)"/>
        <path d="M19.463 5.63799C18.607 7.88799 17.63 8.93199 16.849 9.72399C16.5818 9.99922 16.2225 10.1663 15.8399 10.1932C15.4572 10.2201 15.0781 10.1051 14.775 9.86999L13.591 8.94399L10.167 13.998C9.94431 14.3267 9.64448 14.5958 9.29374 14.7818C8.94299 14.9678 8.55201 15.065 8.155 15.065C8.155 15.065 5.483 18.336 4.553 21.871C4.293 22.862 3.671 23.721 2.849 24.333L2.468 24.618C2.468 24.618 0.117998 26.58 2.923 27.433C2.923 27.433 12.546 30.472 17.879 26.222M36.379 1.30499C36.379 1.30499 34.555 2.53199 33.179 2.79399C32.589 2.90699 32.017 3.02399 31.464 3.14399L28.296 2.47199C26.725 4.26699 24.542 5.12199 23.005 5.79599M54.963 7.80499C52.977 7.80499 52.413 7.65199 51.293 6.74799C50.4245 6.04931 49.6888 5.20013 49.121 4.24099L48.713 3.55099C46.072 3.55099 43.246 3.23099 40.665 2.80699M61.254 17.5C58.158 16.346 57.72 13.085 56.696 11.765M15.818 30.745L15.591 31.218C15.4443 31.5229 15.3774 31.8599 15.3965 32.1977C15.4155 32.5355 15.52 32.8629 15.7 33.1493C15.88 33.4357 16.1298 33.6718 16.4259 33.8354C16.7219 33.9991 17.0547 34.0849 17.393 34.085H19.02C19.3806 34.0852 19.7345 33.9879 20.0443 33.8034C20.3542 33.6189 20.6084 33.3541 20.78 33.037L23.625 27.774C23.625 27.774 27.126 29.224 28.379 32.81C28.652 33.591 29.428 34.085 30.255 34.085H32.278C32.5584 34.0857 32.8357 34.0274 33.092 33.9138C33.3483 33.8002 33.5778 33.6338 33.7656 33.4256C33.9533 33.2174 34.0951 32.972 34.1816 32.7053C34.2682 32.4387 34.2976 32.1568 34.268 31.878C34.165 30.95 33.977 29.988 33.635 29.565C33.635 29.565 48.791 30.002 53.642 28.953C54.666 28.731 55.686 29.351 55.912 30.374C56.022 30.87 56.087 31.426 56.054 32.011C55.99 33.151 56.907 34.085 58.048 34.085H58.438C59.562 34.085 60.438 33.285 60.511 32.243C60.634 30.499 60.497 27.851 58.963 25.812C58.963 25.812 60.096 24.82 60.075 21.725M14.21 16.218C14.21 16.218 16.334 12.891 18.23 15.876C19.509 17.891 17.922 20.918 16.755 22.674C16.4861 23.0775 16.0856 23.3754 15.6218 23.5169C15.1579 23.6584 14.6594 23.6348 14.211 23.45M22.421 13.597L27.421 9.47199M26.546 19.12L32.546 17.062M31.921 11.765L37.968 8.97199M34.944 22.472L41.796 21.725M43.796 15.633L50.671 16.865M41.944 11.49L47.398 8.98699M48.04 22.769L54.301 24.446" stroke="#195557" stroke-width="2" stroke-miterlimit="10" stroke-linecap="round" stroke-linejoin="round"/>
    </symbol>
    <symbol id="phone" viewBox="0 0 32 32">
        <path d="M20.33 21.48L22.57 19.24C22.8717 18.9421 23.2534 18.7381 23.6688 18.6529C24.0842 18.5677 24.5154 18.6049 24.91 18.76L27.64 19.85C28.0388 20.0119 28.3808 20.2882 28.6228 20.6441C28.8648 21 28.9961 21.4196 29 21.85V26.85C28.9977 27.1428 28.9361 27.4321 28.8191 27.7004C28.702 27.9688 28.5318 28.2107 28.3188 28.4116C28.1058 28.6124 27.8544 28.7681 27.5796 28.8693C27.3048 28.9704 27.0124 29.0149 26.72 29C7.59001 27.81 3.73001 11.61 3.00001 5.41001C2.96612 5.10555 2.99709 4.79736 3.09086 4.50572C3.18463 4.21408 3.33909 3.9456 3.54408 3.71795C3.74906 3.49029 3.99993 3.30862 4.28017 3.18487C4.56041 3.06113 4.86367 2.99813 5.17001 3.00001H10C10.431 3.00129 10.8518 3.13148 11.2082 3.37384C11.5646 3.6162 11.8404 3.95965 12 4.36001L13.09 7.09001C13.2503 7.48308 13.2912 7.91465 13.2076 8.33082C13.124 8.74699 12.9196 9.12931 12.62 9.43001L10.38 11.67C10.38 11.67 11.67 20.4 20.33 21.48Z" />
    </symbol>
    <symbol id="cross" viewBox="0 0 36 36">
        <rect width="24" height="2" fill="#195557" transform="translate(7,9) rotate(45)"/>
        <rect width="24" height="2" fill="#195557" transform="translate(6,26) rotate(-45)"/>
    </symbol>
    <symbol id="burger" viewBox="0 0 25 14" >
        <g>
            <rect width="25" height="2" fill="#195557"/>
            <rect y="6" width="25" height="2" fill="#195557"/>
            <rect y="12" width="25" height="2" fill="#195557"/>
        </g>
    </symbol>

</svg>
